<svg width="135" height="103" viewBox="0 0 135 103" fill="none" xmlns="http://www.w3.org/2000/svg">
<path d="M17.03 43.28L0 33.54V54.67L17.03 64.44V62.81V43.28Z" fill="#C83B81"/>
<path d="M79.7296 32.8059L96.188 23.3076V43.0738L79.7296 52.6021V50.9721V32.8059Z" fill="#CD745D"/>
<path d="M58.5002 22.9199L19.9902 44.9999V64.5099L37.0302 54.7399L38.5102 53.8899L58.5002 42.4299L77.0202 53.0499V33.5399L58.5002 22.9199Z" fill="#689744"/>
<path d="M76.1951 102.983L134.822 69.0349V49.5249L97.6651 71.1634L96.1851 72.0134L76.1951 83.4734L57.6751 72.8534V92.3634L76.1951 102.983Z" fill="#CD745D"/>
<path d="M58.5 22.9199L77.02 33.5399V53.0499L58.5 42.4299V22.9199Z" fill="#018181"/>
<path d="M76.1948 102.983L39.147 81.4291V61.9191L76.1948 83.4734V102.983Z" fill="#C83B81"/>
<path d="M0 33.54L58.5 0L95.6 21.26L78.5 31.06L58.5 19.51L17.03 43.28L0 33.54Z" fill="#F59F5A"/>
<path d="M134.695 46.7251L76.1948 80.2651L39.0948 59.0051L56.1948 49.2051L76.1948 60.7551L117.665 36.9851L134.695 46.7251Z" fill="#F59F5A"/>
</svg>
